<?xml version="1.0" encoding="utf-8"?>
<!-- Generator: Adobe Illustrator 17.1.0, SVG Export Plug-In . SVG Version: 6.00 Build 0)  -->
<!DOCTYPE svg PUBLIC "-//W3C//DTD SVG 1.1//EN" "http://www.w3.org/Graphics/SVG/1.1/DTD/svg11.dtd">
<svg version="1.1" id="Ebene_1" xmlns="http://www.w3.org/2000/svg" xmlns:xlink="http://www.w3.org/1999/xlink" x="0px" y="0px"
	 width="128px" height="128px" viewBox="0 0 128 128" enable-background="new 0 0 128 128" xml:space="preserve">
<g>
	<path fill="#686868" d="M8.4,95.8c-5.7-9.7-8.6-20.4-8.6-31.9c0-11.5,2.9-22.2,8.6-31.9c5.7-9.7,13.5-17.4,23.3-23.1
		c9.8-5.7,20.5-8.5,32.1-8.5s22.3,2.8,32.1,8.5c9.8,5.7,17.6,13.4,23.3,23.1c5.7,9.7,8.6,20.4,8.6,31.9c0,11.5-2.9,22.2-8.6,31.9
		c-5.7,9.7-13.5,17.4-23.3,23.1c-9.8,5.7-20.5,8.5-32.1,8.5s-22.3-2.8-32.1-8.5C21.9,113.3,14.1,105.6,8.4,95.8z M26.5,69.2
		c0,1.4,0.5,2.7,1.6,3.7c1.1,1,2.3,1.6,3.7,1.6h21.3v21.2c0,1.4,0.5,2.7,1.6,3.7c1.1,1,2.3,1.6,3.7,1.6h10.7c1.4,0,2.7-0.5,3.7-1.6
		c1.1-1,1.6-2.3,1.6-3.7V74.5h21.3c1.4,0,2.7-0.5,3.7-1.6c1.1-1,1.6-2.3,1.6-3.7V58.6c0-1.4-0.5-2.7-1.6-3.7c-1.1-1-2.3-1.6-3.7-1.6
		H74.4V32.2c0-1.4-0.5-2.7-1.6-3.7c-1.1-1-2.3-1.6-3.7-1.6H58.4c-1.4,0-2.7,0.5-3.7,1.6c-1.1,1-1.6,2.3-1.6,3.7v21.2H31.8
		c-1.4,0-2.7,0.5-3.7,1.6c-1.1,1-1.6,2.3-1.6,3.7V69.2z"/>
</g>
</svg>
