<?xml version="1.0" encoding="utf-8"?>
<!-- Generator: Adobe Illustrator 17.1.0, SVG Export Plug-In . SVG Version: 6.00 Build 0)  -->
<!DOCTYPE svg PUBLIC "-//W3C//DTD SVG 1.1//EN" "http://www.w3.org/Graphics/SVG/1.1/DTD/svg11.dtd">
<svg version="1.1" id="Ebene_1" xmlns="http://www.w3.org/2000/svg" xmlns:xlink="http://www.w3.org/1999/xlink" x="0px" y="0px"
	 width="128px" height="128px" viewBox="0 0 128 128" enable-background="new 0 0 128 128" xml:space="preserve">
<g>
	<path fill="#686868" d="M8.4,95.9c-5.7-9.8-8.6-20.5-8.6-32.1c0-11.6,2.9-22.3,8.6-32.1C14.1,22,21.9,14.2,31.7,8.5
		c9.8-5.7,20.5-8.6,32.2-8.6S86.2,2.8,96,8.5c9.8,5.7,17.6,13.5,23.3,23.3c5.7,9.8,8.6,20.5,8.6,32.1c0,11.6-2.9,22.3-8.6,32.1
		c-5.7,9.8-13.5,17.6-23.3,23.3c-9.8,5.7-20.5,8.6-32.2,8.6s-22.3-2.9-32.2-8.6C21.9,113.5,14.1,105.7,8.4,95.9z M26.5,69.2
		c0,1.4,0.5,2.7,1.6,3.7c1.1,1.1,2.3,1.6,3.8,1.6h64.1c1.4,0,2.7-0.5,3.8-1.6c1.1-1.1,1.6-2.3,1.6-3.7V58.5c0-1.4-0.5-2.7-1.6-3.7
		c-1.1-1.1-2.3-1.6-3.8-1.6H31.8c-1.4,0-2.7,0.5-3.8,1.6c-1.1,1.1-1.6,2.3-1.6,3.7V69.2z"/>
</g>
</svg>
